<svg width="96" height="25" viewBox="0 0 96 25" fill="none" xmlns="http://www.w3.org/2000/svg">
<path d="M66.1497 10.1203V4.11891C66.2218 3.61576 66.1858 3.10531 66.0415 2.62039C65.9009 2.13547 65.6558 1.68336 65.3277 1.30052C64.9997 0.917689 64.5923 0.611423 64.1381 0.399953C63.6838 0.188483 63.1863 0.0791016 62.6852 0.0791016V2.78811C62.5879 3.01416 62.541 3.25844 62.541 3.50637V17.3613C62.541 17.5181 62.5626 17.6749 62.6023 17.828C62.6059 17.828 62.8727 12.3881 66.1497 10.1203Z" fill="black"/>
<path d="M70.0941 7.17552C69.8129 7.15365 68.8575 7.11719 68.8575 7.11719L68.9837 7.15729H68.4285C68.4285 7.15729 71.6767 7.57294 73.1187 8.83447C74.5608 10.096 75.0114 9.54909 76.7094 13.9644C76.7094 13.9644 75.8225 21.0341 69.5461 21.1398C63.2696 21.2492 60.7461 16.0573 60.7461 16.0573C60.7461 20.9721 64.6864 24.9572 69.5461 24.9572C74.4057 24.9572 78.3461 20.9721 78.3461 16.0573C78.3461 11.3284 74.6978 7.45991 70.0941 7.17552Z" fill="black"/>
<path d="M71.8101 13.4905C72.3689 13.8113 72.852 14.2489 73.2305 14.7739C73.1404 14.0812 72.8989 13.4176 72.5167 12.8342C72.1346 12.2508 71.6299 11.7659 71.0314 11.4123C70.4366 11.0586 69.7696 10.8471 69.0811 10.7924C68.3925 10.7377 67.7003 10.8471 67.0586 11.106C66.4169 11.3649 65.8437 11.7696 65.3787 12.2873C64.9136 12.805 64.5747 13.4212 64.3837 14.0921C64.1926 14.763 64.1565 15.4703 64.2755 16.1557C64.3945 16.8448 64.6685 17.4938 65.0758 18.059C64.9677 17.2131 65.0939 16.3563 65.4436 15.5797C65.7896 14.8031 66.3448 14.1431 67.0442 13.6655C67.7436 13.1915 68.5583 12.9217 69.4019 12.8925C70.2455 12.8634 71.0783 13.0676 71.8101 13.4905Z" fill="black"/>
<path d="M25.5014 4.00706C25.5014 3.93413 25.4978 3.86486 25.4942 3.79559C25.4942 3.78829 25.4942 3.78465 25.4942 3.77735C25.4942 3.74454 25.4942 3.71902 25.4942 3.70808H25.4906C25.487 3.64974 25.4798 3.58776 25.4725 3.52942C25.1986 1.31264 23.0427 0.0656922 21.5646 0.0292318C21.4312 0.0255858 21.2979 0.0328779 21.1645 0.051108L21.507 6.84367C21.1897 8.48439 20.6129 10.5772 19.5638 12.6409C16.6725 18.3177 11.611 21.1981 4.51621 21.1981C4.07639 21.1981 3.65099 21.3622 3.31932 21.6575C2.99126 21.9528 2.77856 22.3612 2.72448 22.806L2.49376 22.5326L0.0314855 20.8554C0.0314855 21.0085 -0.000960236 21.1544 0.0134601 21.2965C0.269421 23.5279 2.44328 24.7931 3.92497 24.8296L4.46574 24.8405L4.46213 24.8368C4.48016 24.8368 4.49818 24.8368 4.51621 24.8368C15.2377 24.8368 20.393 19.0397 22.83 14.1758C24.7768 10.2892 25.3031 6.43531 25.4437 4.68157C25.4834 4.45916 25.5014 4.23311 25.5014 4.00706Z" fill="black"/>
<path d="M22.9719 1.95646C22.9719 1.92365 22.9719 1.89813 22.9719 1.88719H22.9683C22.9395 1.42779 22.7376 0.997556 22.4095 0.680351C22.0815 0.363146 21.6416 0.18449 21.1874 0.180844C20.7332 0.177198 20.2933 0.344916 19.9545 0.654829C19.6156 0.964742 19.4065 1.39133 19.3668 1.84708C19.3668 1.89083 19.2767 6.41192 17.0379 10.8127C14.1503 16.4896 9.08875 19.3663 1.99395 19.3663C1.51447 19.3663 1.05663 19.5595 0.717748 19.8986C0.37887 20.2413 0.191406 20.7044 0.191406 21.1893C0.191406 21.6742 0.382475 22.1373 0.717748 22.48C1.05663 22.8227 1.51447 23.0123 1.99395 23.0123C12.7155 23.0123 17.8707 17.2151 20.3078 12.3513C22.7123 7.56406 22.9503 2.82057 22.9719 2.00386H22.9755C22.9755 1.98928 22.9719 1.97105 22.9719 1.95646Z" fill="white"/>
<path d="M1.99647 23.1963C1.46652 23.1963 0.969018 22.9885 0.59409 22.6093C0.222767 22.2337 0.0136719 21.7269 0.0136719 21.191C0.0136719 20.655 0.219162 20.1518 0.59409 19.7727C0.969018 19.3935 1.46652 19.1856 1.99647 19.1856C9.01556 19.1856 14.0266 16.3417 16.8818 10.7268C19.0846 6.399 19.1891 1.88885 19.1891 1.8451V1.83052C19.2324 1.32372 19.4631 0.857025 19.8344 0.517944C20.2093 0.178862 20.6888 -0.00708542 21.1899 0.00020665C21.691 0.00749872 22.1705 0.200739 22.5346 0.550758C22.8591 0.860671 23.0682 1.26538 23.1331 1.70655H23.1547V1.96907C23.1547 1.98 23.1547 1.99459 23.1547 2.00553V2.18783H23.1475C23.0934 3.41654 22.7473 7.90116 20.4725 12.4368C18.0138 17.348 12.8117 23.1963 1.99647 23.1963ZM19.5496 1.85968C19.5424 2.10397 19.3982 6.58495 17.2027 10.8982C14.279 16.6407 9.16337 19.5502 1.99647 19.5502C1.56386 19.5502 1.15648 19.7216 0.850051 20.0315C0.543619 20.3414 0.37418 20.7534 0.37418 21.191C0.37418 21.6285 0.543619 22.0405 0.850051 22.3504C1.15648 22.6603 1.56386 22.8317 1.99647 22.8317C12.6278 22.8317 17.7362 17.0892 20.148 12.2728C22.5202 7.5475 22.7689 2.88787 22.7942 2.00188V1.96542L22.7906 1.90344C22.7653 1.48779 22.5851 1.10131 22.2859 0.816918C21.9866 0.532528 21.5973 0.368456 21.1863 0.36481C20.7753 0.361164 20.3824 0.510652 20.0759 0.791396C19.7767 1.06849 19.5893 1.44768 19.5496 1.85968Z" fill="black"/>
<path d="M0.94129 6.60324C1.13596 6.40635 1.36308 6.25322 1.61544 6.14749C1.8678 6.04175 2.13818 5.98706 2.41216 5.98706C2.68615 5.98706 2.95653 6.04175 3.20889 6.14749C3.46124 6.25322 3.69197 6.41 3.88304 6.60324L8.0433 10.829C8.23797 11.0259 8.38939 11.2556 8.49393 11.5108C8.59848 11.766 8.65256 12.0395 8.65256 12.3166C8.65256 12.5937 8.59848 12.8671 8.49393 13.1224C8.38939 13.3776 8.23437 13.6109 8.0433 13.8042C7.85223 13.9974 7.6215 14.1542 7.36915 14.2599C7.11679 14.3656 6.84641 14.4203 6.57243 14.4203C6.29844 14.4203 6.02806 14.3656 5.7757 14.2599C5.52335 14.1542 5.29262 13.9974 5.10155 13.8042L0.94129 9.58205C0.746616 9.38516 0.595202 9.15547 0.490655 8.90024C0.386107 8.64502 0.332031 8.37157 0.332031 8.09447C0.332031 7.81737 0.386107 7.54392 0.490655 7.28869C0.595202 7.03347 0.750221 6.80013 0.94129 6.60324Z" fill="black"/>
<path d="M0.609259 6.85837C0.998607 6.4646 1.52855 6.24219 2.08013 6.24219C2.63171 6.24219 3.16166 6.4646 3.551 6.85837L7.71127 11.0841C7.90594 11.281 8.05735 11.5107 8.1619 11.7659C8.26645 12.0212 8.32053 12.2946 8.32053 12.5717C8.32053 12.8488 8.26645 13.1223 8.1619 13.3775C8.05735 13.6327 7.90234 13.866 7.71127 14.0593C7.5202 14.2525 7.28947 14.4093 7.03712 14.515C6.78476 14.6208 6.51438 14.6755 6.2404 14.6755C5.96641 14.6755 5.69603 14.6208 5.44367 14.515C5.19132 14.4093 4.96059 14.2525 4.76952 14.0593L0.609259 9.83353C0.414584 9.64029 0.263171 9.40695 0.158624 9.15172C0.0540762 8.8965 0 8.62305 0 8.34595C0 8.06885 0.0540762 7.7954 0.158624 7.54018C0.263171 7.28495 0.414584 7.05161 0.609259 6.85837Z" fill="black"/>
<path d="M0.855352 6.83127C1.05003 6.63438 1.27715 6.48125 1.5295 6.37551C1.78186 6.26978 2.05224 6.21509 2.32623 6.21509C2.60021 6.21509 2.87059 6.26978 3.12295 6.37551C3.3753 6.48125 3.60603 6.63803 3.7971 6.83127L5.96015 9.01889C6.15482 9.21577 6.30623 9.44547 6.41078 9.7007C6.51533 9.95592 6.56941 10.2294 6.56941 10.5065C6.56941 10.7836 6.51533 11.057 6.41078 11.3122C6.30623 11.5675 6.15122 11.8008 5.96015 11.9941C5.76908 12.1873 5.53835 12.3441 5.286 12.4498C5.03364 12.5555 4.76326 12.6102 4.48927 12.6102C4.21529 12.6102 3.94491 12.5555 3.69255 12.4498C3.4402 12.3441 3.20947 12.1873 3.0184 11.9941L0.855352 9.80643C0.466004 9.41266 0.246094 8.87669 0.246094 8.31885C0.246094 7.76101 0.466004 7.22504 0.855352 6.83127Z" fill="white"/>
<path d="M4.49345 12.7979C4.19422 12.7979 3.90221 12.7396 3.62823 12.6229C3.35424 12.5062 3.10549 12.3422 2.89279 12.1271L0.729741 9.93943C0.300737 9.50556 0.0664062 8.93313 0.0664062 8.32059C0.0664062 7.70806 0.300737 7.13563 0.729741 6.70175C0.942441 6.48664 1.18759 6.32257 1.46518 6.20589C1.73916 6.08922 2.03118 6.03088 2.3304 6.03088C2.62962 6.03088 2.92163 6.08922 3.19562 6.20589C3.4696 6.32257 3.71835 6.48664 3.93105 6.70175L6.0941 8.88938C6.3068 9.10449 6.46903 9.35242 6.58439 9.63317C6.69976 9.91391 6.75744 10.2056 6.75744 10.5082C6.75744 10.8108 6.69976 11.1062 6.58439 11.3833C6.46903 11.664 6.3068 11.9119 6.0941 12.1271C5.8814 12.3422 5.63626 12.5062 5.35867 12.6229C5.08107 12.7359 4.78906 12.7979 4.49345 12.7979ZM0.985702 6.96062C0.625194 7.32523 0.430519 7.8065 0.430519 8.32059C0.430519 8.83468 0.628799 9.31596 0.985702 9.68056L3.14875 11.8682C3.3254 12.0468 3.53449 12.189 3.76522 12.2838C3.99594 12.3823 4.24109 12.4297 4.49345 12.4297C4.7458 12.4297 4.99095 12.3786 5.22167 12.2838C5.4524 12.1854 5.66149 12.0468 5.83814 11.8682C6.01479 11.6895 6.15539 11.4781 6.24912 11.2447C6.34646 11.0114 6.39332 10.7634 6.39332 10.5082C6.39332 10.253 6.34285 10.0051 6.24912 9.77172C6.15178 9.53837 6.01479 9.3269 5.83814 9.14824L3.67509 6.96062C3.49844 6.78197 3.28935 6.63977 3.05862 6.54497C2.8279 6.44653 2.58275 6.39913 2.3304 6.39913C2.07804 6.39913 1.8329 6.45018 1.60217 6.54497C1.36784 6.63977 1.16235 6.78197 0.985702 6.96062Z" fill="black"/>
<path d="M6.3959 10.1508C6.84653 10.1508 7.28635 10.2857 7.66128 10.5372C8.03621 10.7888 8.32822 11.1498 8.49766 11.5691C8.67071 11.9884 8.71397 12.4514 8.62744 12.8999C8.54092 13.3483 8.32462 13.7567 8.00377 14.0775C7.68652 14.3984 7.27914 14.6171 6.83932 14.7083C6.3995 14.7958 5.94166 14.7521 5.52347 14.577C5.10889 14.402 4.75198 14.1067 4.50323 13.7312C4.25448 13.352 4.12109 12.9072 4.12109 12.4514L4.8349 13.1733L7.05923 10.9237L6.3959 10.1508Z" fill="black"/>
<path d="M15.6892 6.14679C15.6351 5.6801 15.426 5.24622 15.0944 4.91443L10.9377 0.685028C10.5484 0.291256 10.0184 0.0688477 9.46685 0.0688477C8.91527 0.0688477 8.38533 0.291256 7.99598 0.685028C7.60663 1.0788 7.38672 1.61477 7.38672 2.17261C7.38672 2.73045 7.60663 3.26642 7.99598 3.66019L11.2081 6.92339C11.3163 7.52134 11.6515 8.05002 12.1418 8.40004C12.6321 8.74641 13.2414 8.88496 13.8326 8.78287C14.4238 8.68078 14.9502 8.34535 15.2999 7.84949C15.646 7.35727 15.7866 6.74474 15.6892 6.14679Z" fill="black"/>
<path d="M7.66004 0.937225C7.85471 0.740339 8.08183 0.587205 8.33419 0.48147C8.58655 0.375735 8.85693 0.321045 9.13091 0.321045C9.4049 0.321045 9.67528 0.375735 9.92764 0.48147C10.18 0.587205 10.4107 0.743985 10.6018 0.937225L14.7584 5.16298C14.9531 5.35987 15.1045 5.58957 15.2091 5.84479C15.3136 6.10001 15.3677 6.37346 15.3677 6.65056C15.3677 6.92766 15.3136 7.20111 15.2091 7.45633C15.1045 7.71156 14.9495 7.9449 14.7584 8.13814C14.5638 8.33503 14.3366 8.48816 14.0843 8.5939C13.8319 8.69963 13.5616 8.75432 13.2876 8.75432C13.0136 8.75432 12.7432 8.69963 12.4908 8.5939C12.2385 8.48816 12.0078 8.33138 11.8167 8.13814L7.66004 3.91604C7.46537 3.71915 7.31395 3.48945 7.2094 3.23423C7.10486 2.979 7.05078 2.70555 7.05078 2.42845C7.05078 2.15135 7.10486 1.8779 7.2094 1.62268C7.31395 1.36746 7.46537 1.13411 7.66004 0.937225Z" fill="black"/>
<path d="M7.90613 0.915374C8.10081 0.718488 8.32793 0.565355 8.58028 0.45962C8.83264 0.353885 9.10302 0.299194 9.37701 0.299194C9.65099 0.299194 9.92137 0.353885 10.1737 0.45962C10.4261 0.565355 10.6568 0.722134 10.8479 0.915374L13.0109 3.10299C13.2056 3.29988 13.357 3.52958 13.4616 3.7848C13.5661 4.04003 13.6202 4.31348 13.6202 4.59058C13.6202 4.86768 13.5661 5.14113 13.4616 5.39635C13.357 5.65157 13.202 5.88492 13.0109 6.07816C12.6216 6.47193 12.0916 6.69434 11.5401 6.69434C10.9885 6.69434 10.4585 6.47193 10.0692 6.07816L7.90613 3.89054C7.51679 3.49677 7.29688 2.9608 7.29688 2.40296C7.29688 1.84511 7.51679 1.30915 7.90613 0.915374Z" fill="white"/>
<path d="M11.5403 6.87556C10.9347 6.87556 10.3687 6.63857 9.93967 6.20469L7.77662 4.01707C7.35122 3.58319 7.11328 3.01076 7.11328 2.39823C7.11328 1.7857 7.34761 1.21327 7.77662 0.779391C7.98932 0.564275 8.23446 0.400203 8.51205 0.28353C8.78964 0.166857 9.07805 0.108521 9.37727 0.108521C9.67649 0.108521 9.96851 0.166857 10.2425 0.28353C10.5165 0.400203 10.7652 0.564275 10.9779 0.779391L13.141 2.96701C13.3537 3.18213 13.5159 3.43006 13.6313 3.7108C13.7466 3.9879 13.8043 4.28323 13.8043 4.58585C13.8043 4.88847 13.7466 5.1838 13.6313 5.4609C13.5159 5.738 13.3537 5.98957 13.141 6.20469C12.7156 6.63857 12.146 6.87556 11.5403 6.87556ZM8.03258 1.04191C7.67207 1.40651 7.47739 1.88779 7.47739 2.40188C7.47739 2.91597 7.67567 3.39724 8.03258 3.76185L10.1956 5.94947C10.5561 6.31407 11.032 6.51096 11.5403 6.51096C12.0486 6.51096 12.5245 6.31043 12.885 5.94947C13.0617 5.77081 13.2023 5.55934 13.296 5.326C13.3933 5.09265 13.4402 4.84472 13.4402 4.5895C13.4402 4.33427 13.3897 4.08634 13.296 3.853C13.1987 3.61965 13.0617 3.40818 12.885 3.22953L10.722 1.04191C10.5453 0.86325 10.3362 0.721054 10.1055 0.626257C9.87477 0.527815 9.62963 0.480416 9.37727 0.480416C9.12492 0.480416 8.87977 0.531461 8.64905 0.626257C8.41832 0.721054 8.21283 0.86325 8.03258 1.04191Z" fill="black"/>
<path d="M37.5217 11.1498C37.4712 10.2529 37.0819 9.4143 36.4366 8.79812C35.7913 8.18194 34.9369 7.83922 34.05 7.83922V10.6175C33.9635 10.8326 33.9202 11.0623 33.9202 11.292V17.8184C33.9202 18.42 33.7688 19.0107 33.4804 19.5321C33.192 20.0534 32.7774 20.4983 32.2727 20.8155C31.7608 21.067 31.2164 21.2457 30.654 21.3441C30.5783 21.3478 30.499 21.3514 30.4233 21.3514C29.4968 21.3514 28.6063 20.9759 27.9502 20.316C27.2941 19.6524 26.9264 18.7554 26.9264 17.8148V11.2884C26.9264 11.1936 26.9192 11.1024 26.9047 11.0113C26.8218 10.1435 26.4217 9.33409 25.78 8.74708C25.1419 8.16007 24.3091 7.83557 23.4439 7.83557V10.6248C23.3609 10.8363 23.3213 11.0623 23.3213 11.2884V17.8148C23.3213 18.3252 23.3754 18.832 23.4799 19.3279C23.0906 18.9961 22.7265 18.6351 22.3948 18.245L21.3457 16.3418V16.7246C21.3457 21.2931 25.0085 24.9975 29.5256 24.9975H30.4233C34.3384 24.9975 37.5253 21.7744 37.5253 17.8148V11.2884C37.5253 11.2446 37.5253 11.1972 37.5217 11.1498Z" fill="black"/>
<path d="M28.6215 23.5411C24.7064 23.5411 21.5195 20.318 21.5195 16.3585V9.83205C21.5195 9.34713 21.7106 8.88408 22.0459 8.54135C22.3847 8.19863 22.8426 8.00903 23.3221 8.00903C23.8015 8.00903 24.2594 8.20227 24.5983 8.54135C24.9371 8.88408 25.1246 9.34713 25.1246 9.83205V16.3585C25.1246 17.2955 25.4923 18.1961 26.1485 18.8596C26.8046 19.5232 27.695 19.8951 28.6215 19.8951C29.548 19.8951 30.4385 19.5232 31.0946 18.8596C31.7507 18.1961 32.1185 17.2955 32.1185 16.3585V9.83205C32.1185 9.34713 32.3095 8.88408 32.6448 8.54135C32.9837 8.19863 33.4415 8.00903 33.921 8.00903C34.4005 8.00903 34.8583 8.20227 35.1972 8.54135C35.5361 8.88408 35.7235 9.34713 35.7235 9.83205V16.3585C35.7235 20.318 32.5367 23.5411 28.6215 23.5411Z" fill="white"/>
<path d="M28.6202 23.7251C24.6041 23.7251 21.3379 20.4218 21.3379 16.3601V9.83369C21.3379 9.29772 21.5434 8.79457 21.9183 8.41538C22.2932 8.03619 22.7907 7.82837 23.3207 7.82837C23.8506 7.82837 24.3481 8.03619 24.7231 8.41538C25.098 8.79457 25.3035 9.29772 25.3035 9.83369V16.3601C25.3035 17.257 25.6496 18.0992 26.2732 18.7337C26.9005 19.3681 27.7333 19.7144 28.6202 19.7144C29.507 19.7144 30.3398 19.3644 30.9671 18.7337C31.5943 18.0992 31.9368 17.257 31.9368 16.3601V9.83369C31.9368 9.29772 32.1423 8.79457 32.5172 8.41538C32.8922 8.03619 33.3897 7.82837 33.9196 7.82837C34.4496 7.82837 34.9471 8.03619 35.322 8.41538C35.6969 8.79457 35.9024 9.29772 35.9024 9.83369V16.3601C35.9024 20.4218 32.6362 23.7251 28.6202 23.7251ZM23.3207 8.19297C22.8881 8.19297 22.4807 8.36434 22.1743 8.67425C21.8678 8.98416 21.6984 9.39616 21.6984 9.83369V16.3601C21.6984 20.2212 24.8024 23.3605 28.6202 23.3605C32.4379 23.3605 35.5419 20.2212 35.5419 16.3601V9.83369C35.5419 9.39616 35.3725 8.98416 35.066 8.67425C34.7596 8.36434 34.3522 8.19297 33.9196 8.19297C33.487 8.19297 33.0796 8.36434 32.7732 8.67425C32.4668 8.98416 32.2973 9.39616 32.2973 9.83369V16.3601C32.2973 17.3518 31.9152 18.2888 31.2194 18.9889C30.5236 19.6926 29.6007 20.079 28.6202 20.079C27.6396 20.079 26.7131 19.6926 26.0209 18.9889C25.3251 18.2852 24.943 17.3518 24.943 16.3601V9.83369C24.943 9.39616 24.7735 8.98416 24.4671 8.67425C24.1607 8.36434 23.7533 8.19297 23.3207 8.19297Z" fill="black"/>
<path d="M62.5452 22.0478V16.6152C62.5452 16.1521 62.5019 15.6927 62.4154 15.237C61.7701 11.0222 58.165 7.79541 53.8173 7.79541V9.62572C52.3428 9.97939 51.0197 10.7997 50.0356 11.9665C49.3686 11.1716 48.543 10.5336 47.6093 10.0961C46.6756 9.65853 45.659 9.43248 44.6279 9.43248C40.7128 9.43248 37.5259 12.6556 37.5259 16.6152V19.4664C37.0356 19.6159 36.5958 19.9002 36.2569 20.2904C35.9181 20.6769 35.6873 21.1508 35.5972 21.6613C35.5071 22.1717 35.5539 22.6968 35.7378 23.178C35.9217 23.6593 36.2317 24.0823 36.6391 24.3995C37.0428 24.7167 37.5295 24.9135 38.0378 24.9682C38.5462 25.0229 39.0617 24.9391 39.5231 24.7167C39.9882 24.4979 40.3811 24.1515 40.6623 23.7213C40.9435 23.2911 41.1058 22.7879 41.1238 22.2702H41.131V16.6188C41.131 16.2214 41.1959 15.824 41.3293 15.4484C41.56 14.9125 41.9674 14.4713 42.4829 14.2015C42.9984 13.9317 43.5897 13.8515 44.1557 13.9681C44.7217 14.0885 45.2336 14.3984 45.5977 14.8541C45.9654 15.3099 46.1637 15.875 46.1673 16.462C46.1673 16.462 46.8126 14.7776 45.8825 13.3155C46.5422 13.5707 47.1082 14.0265 47.5084 14.6135C47.9086 15.2042 48.1249 15.9005 48.1249 16.6152V19.244C47.6165 19.4153 47.1659 19.7252 46.8234 20.1372C46.4809 20.5492 46.2538 21.0524 46.1745 21.5884C46.0952 22.1243 46.1637 22.6676 46.3692 23.1671C46.5783 23.6666 46.9172 24.0968 47.3498 24.4104C47.7824 24.7276 48.2943 24.9135 48.8279 24.9537C49.3614 24.9938 49.895 24.8844 50.3708 24.6364C50.8467 24.3885 51.2433 24.0166 51.5244 23.5536C51.8056 23.0905 51.9498 22.5619 51.9498 22.0222C51.9498 21.9748 51.9499 21.9274 51.9462 21.88V16.6152C51.9462 16.112 52.0508 15.6198 52.2563 15.1604C52.5375 14.6791 52.9701 14.3072 53.482 14.0958C53.9939 13.8879 54.5599 13.8515 55.0935 14.001C55.627 14.1468 56.0957 14.4677 56.4346 14.9125C56.7698 15.3573 56.9537 15.9005 56.9537 16.4584C56.9537 16.4584 57.6026 14.763 56.6581 13.2973C57.3286 13.5489 57.9054 14.001 58.3128 14.5953C58.7202 15.1896 58.9401 15.8933 58.9401 16.6152V19.4664C58.4462 19.6195 58.0064 19.9075 57.6639 20.3013C57.325 20.6951 57.0979 21.1727 57.0114 21.6868C56.9249 22.2009 56.9825 22.7296 57.1736 23.2145C57.3683 23.6994 57.6891 24.1187 58.1037 24.4286C58.5183 24.7385 59.0122 24.9245 59.5241 24.9682C60.0396 25.012 60.5552 24.9099 61.013 24.6766C61.4745 24.4432 61.8602 24.0822 62.1306 23.6374C62.401 23.1926 62.5452 22.6822 62.5452 22.1608C62.5488 22.1243 62.5488 22.0879 62.5452 22.0478Z" fill="black"/>
<path d="M53.6399 7.97253C52.6089 7.97253 51.5922 8.19859 50.6585 8.63611C49.7248 9.07364 48.8956 9.71169 48.2323 10.5065C47.5653 9.71169 46.7398 9.07364 45.8025 8.63611C44.8687 8.19859 43.8521 7.97253 42.8247 7.97253C38.9095 7.97253 35.7227 11.1956 35.7227 15.1552V21.6816C35.7227 22.1665 35.9137 22.6296 36.249 22.9723C36.5879 23.315 37.0457 23.5046 37.5252 23.5046C38.0047 23.5046 38.4625 23.3114 38.8014 22.9723C39.1403 22.6296 39.3277 22.1665 39.3277 21.6816V15.1552C39.3277 14.2182 39.6955 13.3176 40.3516 12.654C41.0077 11.9905 41.8982 11.6186 42.8247 11.6186C43.7512 11.6186 44.6416 11.9905 45.2978 12.654C45.9539 13.3176 46.3216 14.2182 46.3216 15.1552V21.6816C46.3216 22.1665 46.5127 22.6296 46.8479 22.9723C47.1868 23.315 47.6447 23.5046 48.1241 23.5046C48.1602 23.5046 48.1962 23.5046 48.2323 23.501C48.2683 23.4973 48.3044 23.5046 48.3404 23.5046C48.8199 23.5046 49.2778 23.3114 49.6166 22.9723C49.9555 22.6296 50.143 22.1665 50.143 21.6816V15.1552C50.143 14.2182 50.5107 13.3176 51.1668 12.654C51.823 11.9905 52.7134 11.6186 53.6399 11.6186C54.5664 11.6186 55.4569 11.9905 56.113 12.654C56.7691 13.3176 57.1368 14.2182 57.1368 15.1552V21.6816C57.1368 22.1665 57.3279 22.6296 57.6632 22.9723C58.0021 23.315 58.4599 23.5046 58.9394 23.5046C59.4189 23.5046 59.8767 23.3114 60.2156 22.9723C60.5545 22.6296 60.7419 22.1665 60.7419 21.6816V15.1552C60.7419 11.1956 57.5586 7.97253 53.6399 7.97253Z" fill="white"/>
<path d="M58.9399 23.6885C58.41 23.6885 57.9125 23.4806 57.5376 23.1014C57.1626 22.7223 56.9571 22.2191 56.9571 21.6831V15.1567C56.9571 14.2598 56.6111 13.4176 55.9874 12.7832C55.3601 12.1488 54.5273 11.8024 53.6405 11.8024C52.7536 11.8024 51.9209 12.1524 51.2936 12.7832C50.6663 13.4176 50.3238 14.2598 50.3238 15.1567V21.6831C50.3238 22.2191 50.1183 22.7223 49.7434 23.1014C49.3685 23.4806 48.871 23.6885 48.341 23.6885C48.323 23.6885 48.3014 23.6885 48.2833 23.6848C48.2725 23.6848 48.2581 23.6812 48.2509 23.6848C48.204 23.6885 48.1644 23.6885 48.1247 23.6885C47.5948 23.6885 47.0973 23.4806 46.7223 23.1014C46.3474 22.7223 46.1419 22.2191 46.1419 21.6831V15.1567C46.1419 14.2598 45.7958 13.4176 45.1721 12.7832C44.5449 12.1488 43.7121 11.8024 42.8252 11.8024C41.9384 11.8024 41.1056 12.1524 40.4783 12.7832C39.851 13.4176 39.5086 14.2598 39.5086 15.1567V21.6831C39.5086 22.2191 39.3031 22.7223 38.9281 23.1014C38.5532 23.4806 38.0557 23.6885 37.5258 23.6885C36.9958 23.6885 36.4983 23.4806 36.1234 23.1014C35.7485 22.7223 35.543 22.2191 35.543 21.6831V15.1567C35.543 11.0951 38.8092 7.79175 42.8252 7.79175C42.8252 7.79175 42.8252 7.79175 42.8288 7.79175C43.8779 7.79175 44.9306 8.02874 45.8823 8.47356C46.7692 8.8892 47.5803 9.49445 48.2329 10.2309C48.889 9.49445 49.6965 8.8892 50.5834 8.47356C51.5351 8.02874 52.5914 7.79175 53.6369 7.79175C57.6529 7.79175 60.9191 11.0951 60.9191 15.1567V21.6831C60.9191 22.2191 60.7136 22.7223 60.3387 23.1014C59.9674 23.4806 59.4699 23.6885 58.9399 23.6885ZM53.6405 11.4378C54.6211 11.4378 55.5476 11.8243 56.2397 12.5279C56.9355 13.2316 57.3177 14.165 57.3177 15.1567V21.6831C57.3177 22.1207 57.4871 22.5327 57.7935 22.8426C58.1 23.1525 58.5073 23.3239 58.9399 23.3239C59.3726 23.3239 59.7799 23.1525 60.0864 22.8426C60.3928 22.5327 60.5622 22.1207 60.5622 21.6831V15.1567C60.5622 11.2956 57.4583 8.15635 53.6405 8.15635C52.6455 8.15635 51.6397 8.37876 50.7384 8.8017C49.8335 9.22464 49.0152 9.8554 48.3735 10.6211L48.2365 10.7851L48.0995 10.6211C47.4542 9.85176 46.6358 9.22464 45.7345 8.79805C44.8297 8.37511 43.8274 8.15271 42.8324 8.15271C42.8324 8.15271 42.8324 8.15271 42.8288 8.15271C39.0111 8.15271 35.9071 11.2919 35.9071 15.1531V21.6795C35.9071 22.117 36.0765 22.529 36.383 22.8389C36.6894 23.1488 37.0968 23.3202 37.5294 23.3202C37.962 23.3202 38.3694 23.1488 38.6758 22.8389C38.9822 22.529 39.1517 22.117 39.1517 21.6795V15.1531C39.1517 14.1614 39.5338 13.2243 40.2296 12.5243C40.9254 11.8206 41.8483 11.4341 42.8288 11.4341C43.8094 11.4341 44.7359 11.8206 45.4281 12.5243C46.1239 13.228 46.506 14.1614 46.506 15.1531V21.6795C46.506 22.117 46.6755 22.529 46.9819 22.8389C47.2883 23.1488 47.6957 23.3202 48.1283 23.3202C48.1608 23.3202 48.1932 23.3202 48.2184 23.3166C48.2545 23.3129 48.2905 23.3166 48.3158 23.3166C48.3266 23.3166 48.3338 23.3166 48.3446 23.3166C48.7772 23.3166 49.1846 23.1452 49.491 22.8353C49.7975 22.5254 49.9669 22.1134 49.9669 21.6758V15.1494C49.9669 14.1577 50.349 13.2207 51.0448 12.5207C51.737 11.8243 52.6599 11.4378 53.6405 11.4378Z" fill="black"/>
<path d="M74.4667 9.68042C73.1617 8.36056 71.4457 7.53656 69.6107 7.34332C67.7757 7.15008 65.9299 7.60218 64.3833 8.62307V2.45034C64.3833 1.96541 64.1923 1.50237 63.857 1.15964C63.5181 0.816913 63.0603 0.627319 62.5808 0.627319C62.1013 0.627319 61.6435 0.820559 61.3046 1.15964C60.9657 1.50237 60.7782 1.96541 60.7782 2.45034V14.6573C60.753 14.9125 60.7422 15.1714 60.7422 15.4302C60.7422 16.7683 61.0666 18.0845 61.6903 19.2622C62.314 20.4399 63.2153 21.4462 64.3148 22.19C65.4144 22.9338 66.6761 23.3895 67.992 23.5208C69.3079 23.652 70.6345 23.4515 71.8566 22.9411C73.0788 22.4306 74.1567 21.6212 74.9931 20.5857C75.8331 19.5539 76.4063 18.3252 76.6622 17.0126C76.9218 15.7 76.8533 14.3473 76.4712 13.0676C76.089 11.7915 75.4004 10.6284 74.4667 9.68042ZM68.7815 19.9148C66.4382 19.9148 64.5131 18.0663 64.3581 15.7365C64.3761 15.6344 64.3833 15.5323 64.3833 15.4302V14.8578C64.6609 12.6556 66.5283 10.9456 68.7815 10.9456C69.9568 10.9456 71.0852 11.4196 71.9179 12.2582C72.7507 13.1004 73.2158 14.2416 73.2158 15.4302C73.2158 16.6188 72.7471 17.76 71.9179 18.6023C71.0852 19.4409 69.9568 19.9148 68.7815 19.9148Z" fill="white"/>
<path d="M68.7821 23.7431C66.601 23.7431 64.5101 22.8681 62.9707 21.3076C61.4277 19.7471 60.5625 17.6324 60.5625 15.4301C60.5625 15.1713 60.5733 14.9088 60.5986 14.6463V2.45027C60.5986 1.91794 60.8076 1.4075 61.179 1.03196C61.5503 0.656416 62.055 0.444946 62.5813 0.444946C63.1077 0.444946 63.6124 0.656416 63.9837 1.03196C64.355 1.4075 64.5641 1.91794 64.5641 2.45027V8.29121C65.6493 7.63493 66.8714 7.24116 68.1332 7.14271C69.3949 7.04427 70.6603 7.23751 71.8356 7.71514C73.0108 8.19277 74.0599 8.93656 74.9035 9.89182C75.7471 10.8471 76.36 11.9846 76.6988 13.217C77.0341 14.4494 77.0846 15.7474 76.8467 17.0016C76.6051 18.2595 76.0824 19.4408 75.3181 20.4617C74.5502 21.4789 73.5624 22.3066 72.4304 22.8754C71.2948 23.4441 70.0475 23.7431 68.7821 23.7431ZM62.5813 0.80955C62.1523 0.80955 61.7378 0.984559 61.4349 1.29083C61.1321 1.59709 60.9591 2.01639 60.9591 2.45027V14.6645V14.6718C60.9338 14.9233 60.923 15.1786 60.923 15.4301C60.923 16.7391 61.2403 18.0261 61.8495 19.1783C62.4588 20.3304 63.3384 21.3148 64.4163 22.0404C65.4906 22.766 66.7272 23.2144 68.0142 23.342C69.3012 23.4697 70.599 23.2764 71.7923 22.7769C72.9856 22.2774 74.0383 21.4862 74.8602 20.4763C75.6786 19.4663 76.241 18.2668 76.4934 16.9834C76.7457 15.7 76.6808 14.3764 76.3059 13.1259C75.931 11.8753 75.2568 10.7377 74.3411 9.81161C73.0649 8.52091 71.3886 7.71514 69.5932 7.52555C67.7979 7.33595 65.9954 7.77712 64.4848 8.77614L64.2036 8.96208V2.45027C64.2036 2.01639 64.0342 1.59709 63.7278 1.29083C63.4213 0.984559 63.0103 0.80955 62.5813 0.80955ZM68.7821 20.0971C66.3631 20.0971 64.3406 18.1866 64.1784 15.7474V15.7255L64.182 15.7036C64.1964 15.6125 64.2036 15.5213 64.2036 15.4301V14.8322C64.3154 13.9426 64.6831 13.104 65.2527 12.4185C65.8259 11.7331 66.5794 11.2299 67.4302 10.9674C68.281 10.7049 69.1859 10.6939 70.0366 10.9419C70.8911 11.1862 71.6553 11.6747 72.243 12.3492C72.8306 13.0238 73.2091 13.8551 73.3425 14.741C73.4759 15.627 73.3497 16.5349 72.9856 17.3553C72.6215 18.172 72.0303 18.8684 71.284 19.3533C70.5378 19.8382 69.6725 20.0971 68.7821 20.0971ZM64.5389 15.7437C64.6975 17.9824 66.5577 19.7325 68.7821 19.7325C69.6004 19.7325 70.4008 19.4955 71.0857 19.047C71.7743 18.5986 72.3187 17.9605 72.6539 17.2058C72.9892 16.451 73.1082 15.6161 72.9856 14.7994C72.8666 13.9827 72.5169 13.217 71.9762 12.5935C71.439 11.9701 70.7324 11.5216 69.9465 11.2919C69.1606 11.0658 68.3242 11.0731 67.5419 11.3138C66.7596 11.5544 66.0602 12.0175 65.5339 12.6482C65.004 13.279 64.6651 14.0519 64.5605 14.8687V15.4301C64.5641 15.5359 64.5569 15.638 64.5389 15.7437Z" fill="black"/>
<path d="M65.4259 18.059C65.4259 18.059 64.8455 17.3918 65.2313 16.1558L64.7266 17.2569L65.4259 18.059Z" fill="black"/>
<path d="M74.4307 9.69749C73.1256 8.37763 71.406 7.55363 69.571 7.36403C67.7324 7.17444 65.8866 7.63384 64.3473 8.66202V2.04811C64.3473 1.56319 64.1562 1.10015 63.8209 0.757419C63.482 0.414691 63.0242 0.225098 62.5447 0.225098C62.0653 0.225098 61.6074 0.418337 61.2685 0.757419C60.9297 1.10015 60.7422 1.56319 60.7422 2.04811V15.903C60.7422 16.0598 60.7638 16.2166 60.8035 16.3697C60.9513 17.6531 61.4019 18.8855 62.1157 19.9574C62.8295 21.0294 63.7885 21.9154 64.9097 22.5352C66.0308 23.1587 67.2818 23.4977 68.5616 23.5306C69.8414 23.5634 71.1068 23.2863 72.2604 22.7248C73.4104 22.1596 74.4126 21.3283 75.1805 20.2929C75.9484 19.2574 76.4603 18.0542 76.673 16.7781C76.8857 15.502 76.7956 14.1931 76.4063 12.9643C76.0097 11.732 75.3356 10.6126 74.4307 9.69749ZM68.7635 19.8882C67.8911 19.8882 67.0403 19.6256 66.312 19.1371C65.5874 18.6485 65.0214 17.9521 64.6861 17.1354C64.3509 16.3187 64.2644 15.4218 64.4338 14.5577C64.6032 13.6935 65.025 12.8987 65.6415 12.2752C66.258 11.6518 67.0439 11.2252 67.8983 11.0538C68.7527 10.8825 69.6395 10.97 70.4471 11.309C71.251 11.6481 71.9432 12.2169 72.4263 12.9534C72.9093 13.6863 73.1689 14.5504 73.1689 15.4327C73.1689 16.614 72.7038 17.7479 71.8747 18.5865C71.0527 19.4178 69.9315 19.8882 68.7635 19.8882Z" fill="white"/>
<path d="M68.7621 23.7174C66.7541 23.7174 64.8181 22.9736 63.3184 21.6246C61.8187 20.2755 60.8598 18.4197 60.6218 16.4035C60.5786 16.2394 60.5605 16.0717 60.5605 15.904V2.04902C60.5605 1.5167 60.7696 1.00625 61.141 0.630713C61.5123 0.255171 62.017 0.0437012 62.5433 0.0437012C63.0697 0.0437012 63.5744 0.255171 63.9457 0.630713C64.317 1.00625 64.5261 1.5167 64.5261 2.04902V8.33114C66.0943 7.37588 67.9329 6.97846 69.7535 7.20087C71.5705 7.42692 73.2612 8.25822 74.5591 9.56714C75.7055 10.7266 76.4878 12.2032 76.8014 13.8111C77.1187 15.419 76.9565 17.0853 76.3364 18.5984C75.7163 20.1115 74.6672 21.4058 73.3189 22.3173C71.967 23.2325 70.3844 23.7174 68.7621 23.7174ZM62.5433 0.408305C62.1143 0.408305 61.6998 0.583314 61.3969 0.889581C61.0941 1.19585 60.9211 1.61514 60.9211 2.04902V15.904C60.9211 16.0461 60.9391 16.1883 60.9751 16.3232L60.9787 16.3378V16.3524C61.177 18.066 61.9233 19.663 63.1021 20.91C64.281 22.1533 65.8312 22.9736 67.5147 23.2471C69.1983 23.5205 70.9215 23.2288 72.4285 22.4231C73.9354 21.6136 75.1359 20.3302 75.8569 18.7697C76.5743 17.2056 76.7726 15.4482 76.4121 13.7637C76.0552 12.0793 75.1611 10.5589 73.8705 9.43224C72.5799 8.30562 70.9612 7.63839 69.2596 7.52536C67.558 7.41598 65.8672 7.86809 64.4468 8.81606L64.1656 9.00565V2.04902C64.1656 1.61514 63.9962 1.19585 63.6898 0.889581C63.3833 0.583314 62.9723 0.408305 62.5433 0.408305ZM68.7621 20.0714C66.2313 20.0714 64.1728 17.9895 64.1728 15.43C64.1728 12.8705 66.2313 10.7886 68.7621 10.7886C69.9806 10.7886 71.1487 11.2771 72.0067 12.1485C72.8647 13.0199 73.3514 14.2013 73.3514 15.43C73.3514 16.6587 72.8683 17.8436 72.0067 18.7114C71.1487 19.5828 69.9806 20.0714 68.7621 20.0714ZM68.7621 11.1532C67.9257 11.1532 67.1074 11.4047 66.4116 11.8751C65.7158 12.3454 65.175 13.0126 64.8542 13.7965C64.5333 14.5768 64.4504 15.4373 64.6127 16.2686C64.7749 17.0999 65.1787 17.8619 65.7699 18.4598C66.3611 19.0578 67.1146 19.4661 67.9365 19.6302C68.7585 19.7943 69.6057 19.7104 70.3808 19.3859C71.1523 19.0614 71.8156 18.5145 72.2807 17.8108C72.7457 17.1071 72.9945 16.2795 72.9945 15.4336C72.9945 14.2997 72.5474 13.2132 71.7543 12.4111C70.9576 11.6053 69.8833 11.1532 68.7621 11.1532Z" fill="black"/>
<path d="M82.2035 3.77718C82.2071 3.70061 82.2107 3.6204 82.2107 3.54383C82.2107 2.61045 81.843 1.71717 81.1941 1.05723C80.5415 0.397302 79.6583 0.0290527 78.7354 0.0290527V2.79639C78.6453 3.0188 78.5984 3.25215 78.5984 3.49279V19.4697C78.1045 19.6228 77.6611 19.9109 77.315 20.301C76.9725 20.6948 76.7454 21.1724 76.6553 21.6901C76.5688 22.2042 76.6228 22.7366 76.8139 23.2215C77.005 23.7064 77.3294 24.1293 77.744 24.4429C78.1586 24.7528 78.6525 24.9424 79.168 24.9898C79.6835 25.0336 80.2027 24.9351 80.6641 24.6981C81.1256 24.4611 81.5149 24.1038 81.7853 23.6554C82.0557 23.2105 82.1999 22.6965 82.1999 22.1751C82.1999 22.1678 82.1999 22.1641 82.1999 22.1568V3.77718H82.2035Z" fill="black"/>
<path d="M78.5975 23.5419C78.118 23.5419 77.6601 23.3487 77.3213 23.0096C76.9824 22.6668 76.7949 22.2038 76.7949 21.7189V2.03029C76.7949 1.54537 76.986 1.08232 77.3213 0.739596C77.6601 0.396869 78.118 0.207275 78.5975 0.207275C79.0769 0.207275 79.5348 0.400515 79.8737 0.739596C80.2125 1.08232 80.4 1.54537 80.4 2.03029V21.7189C80.4 22.2038 80.2089 22.6668 79.8737 23.0096C79.5348 23.3487 79.0769 23.5419 78.5975 23.5419Z" fill="white"/>
<path d="M78.598 23.7247C78.0681 23.7247 77.5706 23.5169 77.1957 23.1377C76.8207 22.7585 76.6152 22.2554 76.6152 21.7194V2.03083C76.6152 1.49486 76.8207 0.991712 77.1957 0.612524C77.5706 0.233337 78.0681 0.0255127 78.598 0.0255127C79.128 0.0255127 79.6255 0.233337 80.0004 0.612524C80.3753 0.991712 80.5808 1.49486 80.5808 2.03083V21.7194C80.5808 22.2554 80.3753 22.7585 80.0004 23.1377C79.6255 23.5169 79.128 23.7247 78.598 23.7247ZM78.598 0.390116C78.1654 0.390116 77.758 0.56148 77.4516 0.871393C77.1452 1.18131 76.9757 1.59331 76.9757 2.03083V21.7194C76.9757 22.1569 77.1452 22.5689 77.4516 22.8789C77.758 23.1888 78.1654 23.3601 78.598 23.3601C79.0306 23.3601 79.438 23.1888 79.7444 22.8789C80.0509 22.5689 80.2203 22.1569 80.2203 21.7194V2.03083C80.2203 1.59331 80.0509 1.18131 79.7444 0.871393C79.438 0.56148 79.0306 0.390116 78.598 0.390116Z" fill="black"/>
<path d="M93.9056 20.5274C94.158 20.3706 94.3959 20.1883 94.6158 19.9878L89.8859 21.1473C90.2681 21.2457 90.6574 21.304 91.054 21.3113L90.5925 21.4389L89.5867 21.2202L89.8859 21.1473C88.772 20.8519 87.7878 20.192 87.0884 19.2695L90.2789 16.0428L92.7628 13.5307C93.1918 13.1624 93.5379 12.7067 93.7758 12.1926C94.0137 11.6785 94.1363 11.117 94.1363 10.5482C94.1363 9.97945 94.0137 9.41796 93.7758 8.90387C93.5379 8.38978 93.1954 7.93038 92.7628 7.56578L92.2581 8.17102C91.2451 7.91215 90.1924 7.85381 89.1613 7.99965C87.9284 8.17102 86.7531 8.63406 85.7293 9.34869C86.9117 7.89756 88.2564 6.99335 88.9811 6.57041L88.7936 6.31519C84.0241 6.68344 80.2676 10.7123 80.2676 15.6272C80.2676 20.7863 84.4026 24.9683 89.5038 24.9683H89.6552C89.7237 24.9683 89.7958 24.9719 89.8643 24.9719C93.2531 24.9719 96.0001 22.726 96.0001 19.955L93.9056 20.5274ZM87.1425 12.8744C87.7445 12.2619 88.5088 11.8426 89.3416 11.6603L88.4115 12.776L85.9023 15.3136C86.0501 14.3875 86.4827 13.5343 87.1425 12.8744Z" fill="black"/>
<path d="M95.3582 18.6736C95.0409 18.3127 94.5939 18.0976 94.1144 18.0684C93.635 18.0392 93.1699 18.2069 92.813 18.5314C92.283 19.0091 91.663 19.3737 90.9888 19.5997C90.3147 19.8258 89.6009 19.906 88.8943 19.8367C88.1877 19.7674 87.5027 19.556 86.879 19.206C86.2589 18.8559 85.7146 18.382 85.2856 17.8132L88.4761 14.5864L92.7012 10.3169C92.8995 10.1164 93.0509 9.87211 93.1374 9.6023C93.224 9.33249 93.2492 9.04446 93.2095 8.76371C93.1699 8.48297 93.0617 8.21316 92.9031 7.98346C92.7409 7.75012 92.5282 7.56052 92.2794 7.42562C90.7725 6.61255 89.0493 6.30264 87.3585 6.53963C85.6281 6.78392 84.0274 7.59334 82.7909 8.84028C81.5579 10.0872 80.7576 11.7097 80.5161 13.4598C80.2817 15.1698 80.5882 16.9126 81.3921 18.4366C81.4534 18.5533 81.5255 18.6591 81.612 18.7575C82.023 19.5487 82.5493 20.2706 83.173 20.9014C84.7556 22.5093 86.8862 23.439 89.125 23.5046C91.3674 23.5703 93.5448 22.7645 95.2176 21.2514C95.5745 20.9305 95.7872 20.4784 95.816 19.9935C95.8377 19.5086 95.6754 19.0346 95.3582 18.6736ZM85.3397 11.4144C85.9922 10.7508 86.8358 10.3096 87.7515 10.1601L84.0995 13.8536C84.2473 12.9275 84.6799 12.0743 85.3397 11.4144Z" fill="white"/>
<path d="M89.3771 23.6885C89.2906 23.6885 89.2041 23.6885 89.1139 23.6849C86.8175 23.6192 84.6581 22.6749 83.0394 21.0269C82.4085 20.3852 81.8749 19.656 81.4568 18.8575C81.3702 18.7518 81.2945 18.6388 81.2296 18.5184C80.4041 16.9507 80.094 15.1933 80.3356 13.4322C80.5807 11.6566 81.4099 9.97943 82.6645 8.71061C83.919 7.44179 85.5774 6.60685 87.333 6.35528C89.0743 6.11099 90.8119 6.42455 92.3621 7.25949C92.6325 7.40898 92.8704 7.62045 93.0471 7.87567C93.2237 8.13089 93.3427 8.42987 93.386 8.73614C93.4292 9.0424 93.404 9.36325 93.3067 9.65858C93.2093 9.95391 93.0435 10.2274 92.8272 10.4461L85.5233 17.8293C85.9235 18.3252 86.4065 18.7372 86.9653 19.0471C87.5674 19.3862 88.2235 19.5904 88.9085 19.656C89.5934 19.7216 90.2748 19.6451 90.9309 19.4263C91.587 19.2075 92.1783 18.8612 92.6902 18.3981C93.0831 18.0408 93.5915 17.8585 94.1214 17.8913C94.6514 17.9205 95.1344 18.1575 95.4877 18.5549C95.841 18.9523 96.0177 19.4701 95.9888 20.0024C95.96 20.5383 95.7257 21.0269 95.3327 21.3842C93.6888 22.8755 91.5798 23.6885 89.3771 23.6885ZM88.4795 6.63967C88.1153 6.63967 87.7476 6.66519 87.3799 6.71623C85.6999 6.95323 84.1137 7.75535 82.9168 8.96584C81.7163 10.18 80.9268 11.7806 80.6925 13.4796C80.4618 15.1641 80.7574 16.8449 81.5505 18.3434C81.6046 18.4455 81.6731 18.544 81.7488 18.6315L81.7632 18.6461L81.774 18.6643C82.1778 19.4372 82.6933 20.1446 83.3026 20.7644C84.8599 22.3431 86.9293 23.251 89.132 23.3166C91.3383 23.3823 93.4545 22.5984 95.0984 21.1108C95.4228 20.8191 95.6139 20.418 95.6355 19.9805C95.6608 19.543 95.513 19.1237 95.2246 18.7955C94.9398 18.4747 94.5324 18.2742 94.107 18.2523C93.6744 18.2268 93.2598 18.3763 92.9353 18.6679C92.3837 19.1674 91.7493 19.5393 91.0463 19.7727C90.3433 20.006 89.615 20.0899 88.8796 20.0206C88.1442 19.9513 87.4412 19.7326 86.7959 19.368C86.1506 19.007 85.5954 18.5221 85.1448 17.9278L85.0474 17.8002L92.5748 10.1909C92.7515 10.0122 92.8885 9.78984 92.9678 9.54556C93.0471 9.30492 93.0687 9.0424 93.0327 8.79083C92.9966 8.53925 92.8993 8.29497 92.7551 8.08714C92.6109 7.87932 92.4162 7.70431 92.1963 7.58399C91.0354 6.95687 89.7701 6.63967 88.4795 6.63967ZM83.8325 14.3838L83.9226 13.826C84.0776 12.8562 84.5247 11.9811 85.2132 11.2884C85.8982 10.592 86.767 10.1399 87.726 9.98308L88.2776 9.89193L83.8325 14.3838ZM87.1744 10.4899C86.5327 10.6977 85.9487 11.055 85.4656 11.5472C84.9789 12.0358 84.6256 12.6228 84.4201 13.2718L87.1744 10.4899Z" fill="black"/>
<path d="M80.5955 15.5615H80.2634L80.2598 14.4677H80.5991V15.5615H80.5955Z" fill="black"/>
</svg>
