<svg width="59" height="58" viewBox="0 0 59 58" fill="none" xmlns="http://www.w3.org/2000/svg">
<path d="M59.0007 9.22192C59.0007 9.05413 58.9957 8.89724 58.9865 8.73784V8.54068H58.9765C58.9683 8.40351 58.953 8.26685 58.9306 8.13127C58.2984 3.02367 53.3093 0.149379 49.8947 0.0629659C49.5854 0.0552488 49.276 0.0706723 48.969 0.109109L49.7613 15.7365C49.0282 19.5118 47.6929 24.3266 45.2625 29.076C38.5736 42.1395 26.8621 48.7639 10.4526 48.7639C9.43258 48.7642 8.44809 49.1406 7.68533 49.8217C6.92256 50.5029 6.43442 51.4416 6.31325 52.4604L5.77614 51.8345L0.0771995 47.9753C0.0771995 48.3235 -0.000365419 48.659 0.038 48.982C0.628494 54.1417 5.6552 57.0487 9.08557 57.1326L10.3366 57.1577L10.3316 57.1519H10.4551C35.2591 57.1519 47.1883 43.8124 52.8238 32.6231C57.3276 23.6823 58.542 14.8077 58.8681 10.7757C58.9564 10.2625 59.0008 9.74271 59.0007 9.22192Z" fill="white"/>
<path d="M53.1486 4.50109V4.34505H53.1386C53.0697 3.28846 52.6068 2.29697 51.8425 1.56888C51.0782 0.840782 50.0689 0.429751 49.0163 0.417984C47.9637 0.406218 46.9455 0.794583 46.1654 1.50541C45.3852 2.21624 44.9005 3.19713 44.8083 4.25192C44.8083 4.35511 44.6023 14.7591 39.4221 24.8787C32.7365 37.9438 21.025 44.5683 4.61547 44.5683C3.50948 44.5683 2.44878 45.0102 1.66672 45.7969C0.884667 46.5836 0.445313 47.6506 0.445312 48.7631C0.445313 49.8756 0.884667 50.9426 1.66672 51.7293C2.44878 52.516 3.50948 52.9579 4.61547 52.9579C29.4196 52.9579 41.3487 39.6184 46.9843 28.4292C52.5448 17.4077 53.0919 6.48776 53.1461 4.61268H53.1519C53.1519 4.57492 53.1494 4.53801 53.1486 4.50109Z" fill="black"/>
<path d="M4.61452 53.3773C3.39792 53.3773 2.23116 52.8911 1.3709 52.0258C0.510634 51.1604 0.0273438 49.9868 0.0273438 48.763C0.0273437 47.5392 0.510634 46.3655 1.3709 45.5002C2.23116 44.6348 3.39792 44.1487 4.61452 44.1487C20.8564 44.1487 32.442 37.6006 39.0508 24.6847C44.1501 14.7229 44.3886 4.34997 44.3886 4.24845V4.21321C44.4881 3.08766 44.994 2.03776 45.8107 1.26189C46.6274 0.486021 47.6984 0.0379345 48.8212 0.00230088C49.944 -0.0333327 51.0408 0.345955 51.9045 1.06849C52.7682 1.79103 53.3389 2.80677 53.5088 3.92377H53.5613V4.52699C53.5613 4.55467 53.5613 4.58236 53.5613 4.61088V5.03036H53.5446C53.4262 7.8627 52.6272 18.1769 47.3553 28.6186C41.6672 39.9136 29.6338 53.3773 4.61452 53.3773ZM45.2243 4.27698C45.211 4.8416 44.8715 15.1499 39.7923 25.0723C33.0291 38.2885 21.1934 44.9893 4.61452 44.9893C3.61912 44.9893 2.6645 45.3871 1.96064 46.0951C1.25679 46.8031 0.861375 47.7634 0.861375 48.7647C0.861375 49.7659 1.25679 50.7262 1.96064 51.4342C2.6645 52.1422 3.61912 52.54 4.61452 52.54C29.2101 52.54 41.0283 39.3263 46.6113 28.2411C52.0976 17.3648 52.6697 6.64033 52.729 4.60081V4.51692L52.7198 4.37513C52.6548 3.42769 52.2379 2.53949 51.5519 1.88697C50.8659 1.23445 49.961 0.865355 49.017 0.852992C48.073 0.840629 47.1588 1.18591 46.4562 1.82024C45.7536 2.45457 45.3138 3.33155 45.2243 4.27698Z" fill="white"/>
<path d="M2.17946 15.1945C2.62659 14.7445 3.15747 14.3876 3.74177 14.144C4.32607 13.9005 4.95234 13.7751 5.58481 13.7751C6.21728 13.7751 6.84356 13.9005 7.42786 14.144C8.01216 14.3876 8.54304 14.7445 8.99016 15.1945L18.6082 24.9155C19.5114 25.824 20.0188 27.0562 20.0188 28.341C20.0188 29.6258 19.5114 30.858 18.6082 31.7665C17.7051 32.675 16.4801 33.1854 15.2029 33.1854C13.9256 33.1854 12.7007 32.675 11.7975 31.7665L2.17946 22.0454C1.27667 21.1367 0.769531 19.9046 0.769531 18.6199C0.769531 17.3353 1.27667 16.1031 2.17946 15.1945Z" fill="white"/>
<path d="M1.40993 15.7755C2.31331 14.8671 3.53836 14.3568 4.8157 14.3568C6.09304 14.3568 7.31809 14.8671 8.22147 15.7755L17.8387 25.5024C18.2859 25.9523 18.6406 26.4863 18.8826 27.0741C19.1247 27.6618 19.2492 28.2917 19.2492 28.9279C19.2492 29.5641 19.1247 30.194 18.8826 30.7818C18.6406 31.3695 18.2859 31.9036 17.8387 32.3534C17.3915 32.8032 16.8606 33.1601 16.2763 33.4035C15.692 33.647 15.0658 33.7723 14.4333 33.7723C13.8009 33.7723 13.1747 33.647 12.5904 33.4035C12.0061 33.1601 11.4752 32.8032 11.028 32.3534L1.40993 22.6265C0.507138 21.7178 0 20.4857 0 19.201C0 17.9163 0.507138 16.6842 1.40993 15.7755Z" fill="white"/>
<path d="M1.98059 15.7194C2.42772 15.2694 2.9586 14.9125 3.5429 14.6689C4.1272 14.4254 4.75347 14.3 5.38594 14.3C6.01841 14.3 6.64468 14.4254 7.22898 14.6689C7.81328 14.9125 8.34416 15.2694 8.79129 15.7194L13.7955 20.7531C14.2574 21.1996 14.6261 21.7343 14.8801 22.3259C15.134 22.9175 15.2681 23.5541 15.2744 24.1984C15.2807 24.8428 15.1592 25.4819 14.9169 26.0784C14.6746 26.675 14.3164 27.2169 13.8633 27.6724C13.4102 28.1279 12.8714 28.488 12.2782 28.7314C11.6851 28.9748 11.0497 29.0968 10.4091 29.0901C9.76853 29.0834 9.13572 28.9483 8.54773 28.6925C7.95974 28.4368 7.42839 28.0656 6.98478 27.6008L1.98059 22.567C1.07759 21.6584 0.570312 20.4262 0.570313 19.1415C0.570312 17.8567 1.07759 16.6246 1.98059 15.716V15.7194Z" fill="black"/>
<path d="M10.3894 29.4453C9.70195 29.445 9.02134 29.3084 8.38648 29.0432C7.75163 28.778 7.175 28.3895 6.6896 27.8999L1.68541 22.8661C1.19938 22.3774 0.813829 21.7971 0.550782 21.1585C0.287734 20.5199 0.152344 19.8353 0.152344 19.1441C0.152344 18.4528 0.287734 17.7683 0.550782 17.1296C0.813829 16.491 1.19938 15.9107 1.68541 15.422C2.1712 14.933 2.74803 14.5451 3.38292 14.2804C4.01782 14.0157 4.69834 13.8795 5.38559 13.8795C6.07284 13.8795 6.75336 14.0157 7.38825 14.2804C8.02315 14.5451 8.59997 14.933 9.08577 15.422L14.09 20.4558C14.8235 21.1916 15.3234 22.1299 15.5263 23.1518C15.7292 24.1737 15.6259 25.2331 15.2296 26.1959C14.8332 27.1587 14.1617 27.9815 13.3 28.5599C12.4383 29.1384 11.4253 29.4465 10.3894 29.4453ZM2.27507 16.0219C1.86656 16.4327 1.54251 16.9205 1.32142 17.4574C1.10033 17.9943 0.986543 18.5697 0.986543 19.1508C0.986543 19.7319 1.10033 20.3073 1.32142 20.8441C1.54251 21.381 1.86656 21.8688 2.27507 22.2797L7.27926 27.3135C8.10422 28.1433 9.22311 28.6095 10.3898 28.6095C11.5564 28.6095 12.6753 28.1433 13.5003 27.3135C14.3253 26.4836 14.7887 25.3581 14.7887 24.1845C14.7887 23.011 14.3253 21.8855 13.5003 21.0556L8.49611 16.0219C8.08776 15.6107 7.60286 15.2846 7.06914 15.0621C6.53542 14.8395 5.96334 14.725 5.38559 14.725C4.80784 14.725 4.23576 14.8395 3.70203 15.0621C3.16831 15.2846 2.68342 15.6107 2.27507 16.0219Z" fill="white"/>
<path d="M36.2958 14.1409C36.167 13.0663 35.6829 12.0665 34.9213 11.3019L25.3033 1.57745C24.4001 0.668957 23.1752 0.158569 21.8979 0.158569C20.6207 0.158569 19.3957 0.668957 18.4926 1.57745C17.5894 2.48595 17.082 3.71813 17.082 5.00294C17.082 6.28774 17.5894 7.51993 18.4926 8.42842L25.9221 15.9388C26.169 17.3135 26.9459 18.5344 28.0837 19.3355C29.2215 20.1365 30.6278 20.4527 31.9964 20.2153C33.365 19.9779 34.5848 19.2061 35.3901 18.068C36.1954 16.9299 36.521 15.5177 36.2958 14.1392V14.1409Z" fill="white"/>
<path d="M17.7244 2.15845C18.1715 1.70848 18.7024 1.35154 19.2867 1.10801C19.871 0.864481 20.4973 0.739136 21.1297 0.739136C21.7622 0.739136 22.3885 0.864481 22.9728 1.10801C23.5571 1.35154 24.088 1.70848 24.5351 2.15845L34.1531 11.8829C35.0563 12.7914 35.5637 14.0235 35.5637 15.3084C35.5637 16.5932 35.0563 17.8253 34.1531 18.7338C33.25 19.6423 32.025 20.1527 30.7478 20.1527C29.4705 20.1527 28.2456 19.6423 27.3424 18.7338L17.7244 9.00942C16.8216 8.10073 16.3145 6.86862 16.3145 5.58393C16.3145 4.29925 16.8216 3.06714 17.7244 2.15845Z" fill="white"/>
<path d="M18.2897 2.10083C18.7368 1.65087 19.2677 1.29392 19.852 1.05039C20.4363 0.806864 21.0626 0.681519 21.695 0.681519C22.3275 0.681519 22.9538 0.806864 23.5381 1.05039C24.1224 1.29392 24.6532 1.65087 25.1004 2.10083L30.1046 7.13461C30.5606 7.58253 30.9237 8.11704 31.1728 8.70716C31.4219 9.29728 31.5522 9.93126 31.5559 10.5724C31.5597 11.2135 31.4369 11.849 31.1948 12.442C30.9526 13.0351 30.5958 13.5739 30.1451 14.0272C29.6944 14.4805 29.1587 14.8393 28.5691 15.0829C27.9795 15.3264 27.3478 15.4498 26.7104 15.446C26.0731 15.4421 25.4428 15.311 24.8562 15.0603C24.2696 14.8096 23.7383 14.4443 23.293 13.9856L18.2888 8.9518C17.386 8.04311 16.8789 6.811 16.8789 5.52632C16.8789 4.24163 17.386 3.00952 18.2888 2.10083H18.2897Z" fill="black"/>
<path d="M26.7001 15.8253C26.0125 15.8272 25.3314 15.6919 24.6962 15.4272C24.061 15.1625 23.4843 14.7737 22.9995 14.2833L17.9953 9.24953C17.0141 8.26229 16.4629 6.92346 16.4629 5.52748C16.4629 4.13149 17.0141 2.79266 17.9953 1.80542C18.4811 1.31641 19.0579 0.928496 19.6928 0.66383C20.3277 0.399165 21.0082 0.262939 21.6954 0.262939C22.3827 0.262939 23.0632 0.399165 23.6981 0.66383C24.333 0.928496 24.9098 1.31641 25.3956 1.80542L30.3998 6.83919C31.1314 7.57549 31.6296 8.51345 31.8314 9.53449C32.0331 10.5555 31.9294 11.6138 31.5333 12.5756C31.1373 13.5374 30.4666 14.3594 29.6062 14.9379C28.7457 15.5163 27.7341 15.8251 26.6992 15.8253H26.7001ZM18.5858 2.40192C17.7609 3.23183 17.2976 4.35731 17.2976 5.53083C17.2976 6.70435 17.7609 7.82983 18.5858 8.65974L23.5899 13.6935C24.4181 14.508 25.5321 14.9612 26.6903 14.9547C27.8485 14.9482 28.9574 14.4825 29.7764 13.6588C30.5955 12.835 31.0585 11.7196 31.0652 10.5545C31.0718 9.38951 30.6214 8.26883 29.8118 7.4357L24.8076 2.40192C24.3993 1.99079 23.9144 1.66465 23.3807 1.44213C22.8469 1.21961 22.2749 1.10508 21.6971 1.10508C21.1194 1.10508 20.5473 1.21961 20.0136 1.44213C19.4798 1.66465 18.9949 1.99079 18.5866 2.40192H18.5858Z" fill="white"/>
</svg>
