<svg width="36" height="36" viewBox="0 0 36 36" fill="none" xmlns="http://www.w3.org/2000/svg">
<path d="M35.9988 6.18874C35.9988 6.08636 35.9958 5.99063 35.9902 5.89337V5.77307H35.9841C35.9791 5.68937 35.9697 5.60599 35.9561 5.52326C35.5704 2.4068 32.5262 0.653025 30.4428 0.600299C30.254 0.59559 30.0652 0.605001 29.8779 0.628454L30.3613 10.1637C29.914 12.4672 29.0993 15.405 27.6164 18.3029C23.535 26.2737 16.3892 30.3157 6.37668 30.3157C5.75433 30.3159 5.15363 30.5455 4.68823 30.9612C4.22282 31.3768 3.92498 31.9496 3.85104 32.5712L3.52331 32.1893L0.046045 29.8345C0.046045 30.047 -0.00128205 30.2517 0.022127 30.4488C0.382424 33.597 3.44952 35.3707 5.5426 35.4219L6.30594 35.4373L6.30289 35.4337H6.3782C21.5127 35.4337 28.7914 27.2945 32.23 20.4672C34.978 15.0119 35.719 9.59698 35.9179 7.13678C35.9718 6.82368 35.9989 6.5065 35.9988 6.18874Z" fill="#D57EF8"/>
<path d="M32.429 3.30926V3.21405H32.4229C32.3808 2.56936 32.0984 1.96439 31.6321 1.52014C31.1657 1.07588 30.5498 0.825087 29.9076 0.817908C29.2654 0.810728 28.6441 1.04769 28.1681 1.48141C27.692 1.91513 27.3963 2.51363 27.34 3.15723C27.34 3.22019 27.2143 9.56829 24.0536 15.7429C19.9743 23.7147 12.8284 27.7567 2.81595 27.7567C2.14112 27.7567 1.49392 28.0264 1.01674 28.5064C0.539561 28.9864 0.271484 29.6374 0.271484 30.3162C0.271484 30.995 0.539561 31.646 1.01674 32.1261C1.49392 32.6061 2.14112 32.8757 2.81595 32.8757C17.9504 32.8757 25.2291 24.7365 28.6677 17.9092C32.0605 11.1844 32.3944 4.52145 32.4274 3.37734H32.431C32.431 3.35431 32.4295 3.33178 32.429 3.30926Z" fill="black"/>
<path d="M2.81649 33.1312C2.07417 33.1312 1.36226 32.8346 0.837361 32.3066C0.312463 31.7786 0.0175781 31.0625 0.0175781 30.3158C0.0175781 29.5691 0.312463 28.8529 0.837361 28.3249C1.36226 27.7969 2.07417 27.5003 2.81649 27.5003C12.7267 27.5003 19.7957 23.5049 23.8282 15.6242C26.9396 9.54584 27.0851 3.21668 27.0851 3.15474V3.13324C27.1458 2.44647 27.4545 1.80586 27.9528 1.33246C28.4511 0.859051 29.1046 0.585646 29.7897 0.563904C30.4747 0.542162 31.144 0.773588 31.671 1.21445C32.198 1.65532 32.5462 2.27508 32.6498 2.95663H32.6819V3.32469C32.6819 3.34158 32.6819 3.35848 32.6819 3.37588V3.63183H32.6717C32.5995 5.36001 32.1119 11.6533 28.8952 18.0245C25.4246 24.9162 18.0823 33.1312 2.81649 33.1312ZM27.595 3.17214C27.5869 3.51665 27.3798 9.8064 24.2806 15.8607C20.154 23.9247 12.9323 28.0132 2.81649 28.0132C2.20914 28.0132 1.62666 28.2559 1.1972 28.6879C0.767741 29.1199 0.526471 29.7058 0.526471 30.3168C0.526471 30.9277 0.767741 31.5136 1.1972 31.9456C1.62666 32.3776 2.20914 32.6203 2.81649 32.6203C17.8238 32.6203 25.0348 24.5579 28.4413 17.7941C31.7888 11.1578 32.1379 4.61417 32.174 3.36974V3.31855L32.1684 3.23204C32.1288 2.65394 31.8744 2.112 31.4558 1.71386C31.0373 1.31572 30.4852 1.09051 29.9092 1.08296C29.3331 1.07542 28.7754 1.28609 28.3467 1.67314C27.9179 2.06018 27.6496 2.59528 27.595 3.17214Z" fill="#D57EF8"/>
<path d="M1.33099 9.83366C1.60381 9.55911 1.92773 9.34132 2.28425 9.19272C2.64076 9.04413 3.02289 8.96765 3.4088 8.96765C3.79471 8.96765 4.17684 9.04413 4.53335 9.19272C4.88987 9.34132 5.21379 9.55911 5.48661 9.83366L11.3552 15.7651C11.9062 16.3194 12.2158 17.0712 12.2158 17.8552C12.2158 18.6391 11.9062 19.3909 11.3552 19.9453C10.8041 20.4996 10.0567 20.811 9.27736 20.811C8.49803 20.811 7.75062 20.4996 7.19955 19.9453L1.33099 14.0139C0.780139 13.4594 0.470703 12.7076 0.470703 11.9238C0.470703 11.1399 0.780139 10.3881 1.33099 9.83366Z" fill="#D57EF8"/>
<path d="M0.860286 10.1884C1.41149 9.63412 2.15897 9.32275 2.93835 9.32275C3.71773 9.32275 4.46521 9.63412 5.01642 10.1884L10.8845 16.1234C11.1573 16.3979 11.3738 16.7237 11.5214 17.0823C11.6691 17.4409 11.7451 17.8253 11.7451 18.2135C11.7451 18.6016 11.6691 18.986 11.5214 19.3446C11.3738 19.7032 11.1573 20.0291 10.8845 20.3036C10.6116 20.578 10.2877 20.7958 9.93116 20.9443C9.57465 21.0929 9.19254 21.1693 8.80665 21.1693C8.42077 21.1693 8.03866 21.0929 7.68215 20.9443C7.32564 20.7958 7.00171 20.578 6.72884 20.3036L0.860286 14.3686C0.309436 13.8141 0 13.0623 0 12.2785C0 11.4946 0.309436 10.7428 0.860286 10.1884Z" fill="#D57EF8"/>
<path d="M1.20815 10.1536C1.48097 9.87906 1.80489 9.66126 2.16141 9.51267C2.51793 9.36408 2.90006 9.2876 3.28596 9.2876C3.67187 9.2876 4.054 9.36408 4.41052 9.51267C4.76703 9.66126 5.09096 9.87906 5.36378 10.1536L8.41714 13.225C8.69899 13.4974 8.92397 13.8237 9.07892 14.1846C9.23387 14.5456 9.31567 14.934 9.31952 15.3272C9.32338 15.7204 9.24922 16.1103 9.10138 16.4743C8.95354 16.8383 8.73499 17.1689 8.45854 17.4469C8.18208 17.7248 7.85328 17.9445 7.49137 18.093C7.12947 18.2416 6.74174 18.316 6.3509 18.3119C5.96005 18.3078 5.57393 18.2254 5.21517 18.0693C4.8564 17.9133 4.53219 17.6868 4.26151 17.4032L1.20815 14.3318C0.657178 13.7774 0.347656 13.0256 0.347656 12.2417C0.347656 11.4577 0.657178 10.7059 1.20815 10.1516V10.1536Z" fill="black"/>
<path d="M6.33802 18.5292C5.91859 18.5291 5.50331 18.4457 5.11595 18.2839C4.72858 18.1221 4.37674 17.885 4.08057 17.5863L1.02721 14.5149C0.730657 14.2167 0.495409 13.8626 0.334908 13.473C0.174407 13.0833 0.0917969 12.6656 0.0917969 12.2438C0.0917969 11.822 0.174407 11.4044 0.334908 11.0147C0.495409 10.625 0.730657 10.271 1.02721 9.97278C1.32363 9.67441 1.67558 9.43771 2.06297 9.27622C2.45036 9.11474 2.86558 9.03162 3.28492 9.03162C3.70425 9.03162 4.11948 9.11474 4.50687 9.27622C4.89425 9.43771 5.24621 9.67441 5.54262 9.97278L8.59598 13.0442C9.04358 13.4931 9.3486 14.0657 9.47239 14.6892C9.59618 15.3127 9.53316 15.9592 9.29133 16.5466C9.0495 17.1341 8.63974 17.6361 8.11398 17.989C7.58821 18.342 6.97012 18.53 6.33802 18.5292ZM1.387 10.3388C1.13774 10.5895 0.940021 10.8871 0.805122 11.2147C0.670224 11.5423 0.600792 11.8934 0.600792 12.2479C0.600792 12.6025 0.670224 12.9536 0.805122 13.2812C0.940021 13.6087 1.13774 13.9064 1.387 14.1571L4.44036 17.2285C4.94372 17.7348 5.62642 18.0193 6.33828 18.0193C7.05014 18.0193 7.73284 17.7348 8.2362 17.2285C8.73955 16.7221 9.02234 16.0354 9.02234 15.3193C9.02234 14.6033 8.73955 13.9165 8.2362 13.4102L5.18284 10.3388C4.93368 10.0879 4.63781 9.88893 4.31216 9.75316C3.9865 9.61739 3.63744 9.5475 3.28492 9.5475C2.9324 9.5475 2.58334 9.61739 2.25768 9.75316C1.93202 9.88893 1.63616 10.0879 1.387 10.3388Z" fill="#D57EF8"/>
<path d="M22.1454 9.19066C22.0668 8.53499 21.7714 7.92491 21.3067 7.45839L15.4382 1.52493C14.8871 0.970598 14.1397 0.65918 13.3603 0.65918C12.581 0.65918 11.8336 0.970598 11.2825 1.52493C10.7315 2.07925 10.4219 2.83109 10.4219 3.61502C10.4219 4.39896 10.7315 5.15079 11.2825 5.70512L15.8158 10.2877C15.9664 11.1265 16.4404 11.8714 17.1347 12.3602C17.8289 12.8489 18.687 13.0419 19.522 12.897C20.3571 12.7522 21.1014 12.2812 21.5927 11.5868C22.0841 10.8924 22.2828 10.0307 22.1454 9.18964V9.19066Z" fill="#D57EF8"/>
<path d="M10.8134 1.87956C11.0862 1.60501 11.4102 1.38722 11.7667 1.23862C12.1232 1.09003 12.5053 1.01355 12.8912 1.01355C13.2771 1.01355 13.6593 1.09003 14.0158 1.23862C14.3723 1.38722 14.6962 1.60501 14.969 1.87956L20.8376 7.81302C21.3887 8.36735 21.6982 9.11918 21.6982 9.90312C21.6982 10.6871 21.3887 11.4389 20.8376 11.9932C20.2865 12.5475 19.5391 12.859 18.7598 12.859C17.9804 12.859 17.233 12.5475 16.682 11.9932L10.8134 6.05975C10.2626 5.50531 9.95312 4.75352 9.95312 3.96966C9.95312 3.18579 10.2626 2.434 10.8134 1.87956Z" fill="#D57EF8"/>
<path d="M11.1596 1.84465C11.4324 1.5701 11.7564 1.3523 12.1129 1.20371C12.4694 1.05512 12.8515 0.978638 13.2374 0.978638C13.6233 0.978638 14.0055 1.05512 14.362 1.20371C14.7185 1.3523 15.0424 1.5701 15.3152 1.84465L18.3686 4.91606C18.6468 5.18936 18.8684 5.5155 19.0204 5.87557C19.1724 6.23564 19.2519 6.62247 19.2542 7.01366C19.2565 7.40484 19.1816 7.7926 19.0338 8.15445C18.886 8.5163 18.6683 8.84505 18.3933 9.12164C18.1183 9.39824 17.7915 9.61718 17.4317 9.76578C17.072 9.91438 16.6865 9.98969 16.2976 9.98732C15.9087 9.98496 15.5242 9.90498 15.1663 9.75203C14.8083 9.59907 14.4841 9.37617 14.2125 9.09625L11.1591 6.02484C10.6083 5.47039 10.2988 4.71861 10.2988 3.93474C10.2988 3.15088 10.6083 2.39909 11.1591 1.84465H11.1596Z" fill="black"/>
<path d="M16.2912 10.2185C15.8717 10.2196 15.4561 10.137 15.0686 9.97552C14.681 9.81402 14.3291 9.5768 14.0333 9.27758L10.9799 6.20617C10.3812 5.60379 10.0449 4.78689 10.0449 3.93511C10.0449 3.08334 10.3812 2.26644 10.9799 1.66406C11.2763 1.36569 11.6283 1.129 12.0157 0.967508C12.4031 0.80602 12.8183 0.7229 13.2376 0.7229C13.657 0.7229 14.0722 0.80602 14.4596 0.967508C14.847 1.129 15.1989 1.36569 15.4953 1.66406L18.5487 4.73547C18.9951 5.18473 19.299 5.75704 19.4222 6.38004C19.5453 7.00304 19.482 7.64877 19.2403 8.23561C18.9987 8.82244 18.5895 9.32403 18.0644 9.67696C17.5394 10.0299 16.9222 10.2183 16.2907 10.2185H16.2912ZM11.3402 2.02802C10.8369 2.5344 10.5542 3.22112 10.5542 3.93716C10.5542 4.6532 10.8369 5.33992 11.3402 5.8463L14.3936 8.91772C14.8989 9.4147 15.5786 9.69121 16.2853 9.68723C16.992 9.68327 17.6686 9.39914 18.1683 8.89651C18.6681 8.39388 18.9506 7.7133 18.9547 7.00243C18.9587 6.29157 18.6839 5.60778 18.1899 5.09944L15.1366 2.02802C14.8874 1.77717 14.5915 1.57817 14.2659 1.4424C13.9402 1.30662 13.5912 1.23674 13.2386 1.23674C12.8861 1.23674 12.5371 1.30662 12.2114 1.4424C11.8857 1.57817 11.5899 1.77717 11.3407 2.02802H11.3402Z" fill="#D57EF8"/>
</svg>
