<?xml version="1.0" encoding="utf-8"?>
<!-- Generator: Adobe Illustrator 23.1.1, SVG Export Plug-In . SVG Version: 6.00 Build 0)  -->
<svg version="1.1" id="Calque_1" xmlns="http://www.w3.org/2000/svg" xmlns:xlink="http://www.w3.org/1999/xlink" x="0px" y="0px"
	 viewBox="0 0 120 120" style="enable-background:new 0 0 120 120;" xml:space="preserve">
<style type="text/css">
	.st0{clip-path:url(#SVGID_2_);}
	.st1{fill:#FFFFFF;}
	.st2{fill-rule:evenodd;clip-rule:evenodd;}
</style>
<g>
	<defs>
		<rect id="SVGID_1_" y="0" width="120" height="120"/>
	</defs>
	<clipPath id="SVGID_2_">
		<use xlink:href="#SVGID_1_"  style="overflow:visible;"/>
	</clipPath>
	<g class="st0">
		<path class="st1" d="M6.7,69.3l-0.2,0l80.3,0L61.6,94.1c-1.2,1.2-1.9,2.9-1.9,4.6c0,1.7,0.7,3.4,1.9,4.6l3.9,3.9
			c1.2,1.2,2.9,1.9,4.6,1.9c1.8,0,3.4-0.7,4.6-1.9l43.3-42.5c1.2-1.2,1.9-2.8,1.9-4.6c0-1.7-0.7-3.4-1.9-4.6L74.8,12.9
			c-1.2-1.2-2.9-1.9-4.6-1.9c-1.8,0-3.4,0.7-4.6,1.9l-3.9,3.9c-1.2,1.2-1.9,2.8-1.9,4.6c0,1.7,0.7,3.3,1.9,4.5l25.5,25H6.7
			C3,50.8,0,53.9,0,57.4l0,5.5C0,66.4,3.1,69.3,6.7,69.3z"/>
		<path class="st2" d="M6.7,50.8C3,50.8,0,53.9,0,57.4l0,5.5c0,3.5,3,6.2,6.4,6.4c0,0,0.1,0,0.1,0c0,0,0,0,0,0c0.1,0,0.1,0,0.2,0
			l-0.2,0l80.3,0L61.6,94.1c-1.2,1.2-1.9,2.9-1.9,4.6c0,1.7,0.7,3.4,1.9,4.6l3.9,3.9c1.2,1.2,2.9,1.9,4.6,1.9c1.8,0,3.4-0.7,4.6-1.9
			l43.3-42.5c1.2-1.2,1.9-2.8,1.9-4.6c0-1.7-0.7-3.4-1.9-4.6L74.8,12.9c-1.2-1.2-2.9-1.9-4.6-1.9c-1.8,0-3.4,0.7-4.6,1.9l-3.9,3.9
			c-1.2,1.2-1.9,2.8-1.9,4.6c0,1.7,0.7,3.3,1.9,4.5l25.5,25H6.7z M62.3,25.1c-1.1-1-1.6-2.3-1.6-3.8c0-1.5,0.6-2.8,1.6-3.8l3.9-3.9
			 M62.3,25.1l27.3,26.7H6.7c-3.1,0-5.7,2.6-5.7,5.6v5.5c0,2.9,2.5,5.3,5.6,5.4l0,0l82.7,0l-27,26.6c-1,1-1.6,2.4-1.6,3.9
			c0,1.5,0.6,2.8,1.6,3.9l3.9,3.9c1,1,2.4,1.6,3.9,1.6c1.5,0,2.9-0.6,3.9-1.6l43.3-42.5c0,0,0,0,0,0c1-1,1.6-2.4,1.6-3.9l0,0
			c0-1.5-0.6-2.8-1.6-3.9L74.1,13.6c-1-1-2.4-1.6-3.9-1.6c-1.5,0-2.9,0.6-3.9,1.6"/>
	</g>
</g>
</svg>
