<svg width="120" height="120" viewBox="0 0 120 120" fill="none" xmlns="http://www.w3.org/2000/svg">
<g clip-path="url(#clip0)">
<path d="M113.255 50.7476L113.442 50.7879L33.1434 50.7878L58.3863 25.9135C59.6224 24.6991 60.3005 23.054 60.3005 21.3273C60.3005 19.6007 59.6224 17.9671 58.3864 16.7498L54.4585 12.8859C53.2234 11.6715 51.5776 11 49.8225 11C48.0664 11 46.4195 11.6667 45.1844 12.8811L1.91319 55.4229C0.673189 56.6421 -0.00486017 58.2662 1.75716e-05 59.9938C-0.00486078 61.731 0.673188 63.356 1.91319 64.5732L45.1844 107.119C46.4195 108.332 48.0654 109 49.8224 109C51.5776 109 53.2234 108.331 54.4585 107.119L58.3863 103.255C59.6224 102.043 60.3005 100.423 60.3005 98.6967C60.3005 96.971 59.6224 95.4372 58.3863 94.2237L32.8585 69.2103L113.344 69.2103C116.961 69.2103 120 66.1455 120 62.5914L120 57.1266C120 53.5726 116.871 50.7476 113.255 50.7476Z" fill="white"/>
<path fill-rule="evenodd" clip-rule="evenodd" d="M113.344 69.2103C116.961 69.2103 120 66.1455 120 62.5914L120 57.1266C120 53.6703 117.041 50.9035 113.552 50.7539C113.518 50.7525 113.484 50.7513 113.45 50.7503C113.447 50.7502 113.445 50.7502 113.442 50.7501C113.38 50.7484 113.317 50.7476 113.255 50.7476L113.442 50.7879L33.1434 50.7878L58.3863 25.9135C59.6224 24.6991 60.3005 23.054 60.3005 21.3273C60.3005 19.6007 59.6224 17.9671 58.3864 16.7498L54.4585 12.8859C53.2234 11.6715 51.5776 11 49.8225 11C48.0664 11 46.4195 11.6667 45.1844 12.8811L1.91319 55.4229C0.673189 56.6421 -0.00486017 58.2662 1.75716e-05 59.9938C-0.00486078 61.731 0.673188 63.3559 1.91319 64.5732L45.1844 107.119C46.4195 108.332 48.0654 109 49.8224 109C51.5776 109 53.2234 108.331 54.4585 107.119L58.3863 103.255C59.6224 102.043 60.3005 100.423 60.3005 98.6967C60.3005 96.971 59.6224 95.4372 58.3863 94.2237L32.8585 69.2103L113.344 69.2103ZM57.6858 94.9373C58.7404 95.9729 59.3005 97.2541 59.3005 98.6967C59.3005 100.155 58.7302 101.517 57.6861 102.541L53.758 106.405M57.6858 94.9373L30.4092 68.2103L113.344 68.2103C116.41 68.2103 119 65.5921 119 62.5914L119 57.1266C119 54.2499 116.492 51.8476 113.446 51.7506L113.442 51.7879L30.7039 51.7878L57.6855 25.2002C58.7273 24.1767 59.3005 22.7899 59.3005 21.3273C59.3005 19.8668 58.7287 18.4904 57.6847 17.4623L53.7574 13.599C52.7113 12.5703 51.318 12 49.8225 12C48.3238 12 46.9302 12.567 45.8855 13.5942L2.61429 56.136C2.61428 56.136 2.6143 56.136 2.61429 56.136C1.56554 57.1672 0.995898 58.5334 1.00001 59.9909L1.00003 59.9966C0.995891 61.4648 1.56628 62.8314 2.61373 63.8596L45.8852 106.406C46.9303 107.432 48.3232 108 49.8224 108C51.3188 108 52.7118 107.432 53.7573 106.406" fill="black"/>
</g>
<defs>
<clipPath id="clip0">
<rect width="120" height="120" fill="white"/>
</clipPath>
</defs>
</svg>
